<?xml version="1.0" standalone="no"?>
<!DOCTYPE svg PUBLIC "-//W3C//DTD SVG 20010904//EN"
 "http://www.w3.org/TR/2001/REC-SVG-20010904/DTD/svg10.dtd">
<svg version="1.0" xmlns="http://www.w3.org/2000/svg"
 width="192.000000pt" height="192.000000pt" viewBox="0 0 192.000000 192.000000"
 preserveAspectRatio="xMidYMid meet">

<g transform="translate(0.000000,192.000000) scale(0.100000,-0.100000)"
fill="#000000" stroke="none">
<path d="M0 1425 l0 -45 133 -2 c72 -2 166 -2 207 0 41 1 80 -1 87 -6 7 -5 14
-65 19 -175 4 -92 10 -170 15 -172 18 -11 22 26 20 186 -2 108 1 169 8 169 5
0 12 -19 14 -42 3 -34 4 -30 5 19 2 53 -1 64 -18 73 -11 6 -20 17 -20 25 0 13
-35 15 -235 15 l-235 0 0 -45z"/>
<path d="M540 1463 c19 -7 50 -39 50 -52 0 -6 8 -7 18 -4 21 9 52 45 45 55 -2
5 -32 8 -66 7 -34 0 -55 -3 -47 -6z m80 -18 c0 -8 -4 -15 -10 -15 -5 0 -10 7
-10 15 0 8 5 15 10 15 6 0 10 -7 10 -15z"/>
<path d="M830 1445 c-18 -19 -35 -25 -69 -26 -30 -1 -36 -3 -18 -6 41 -7 32
-23 -13 -23 -42 0 -54 -14 -20 -23 26 -7 26 -27 0 -27 -18 0 -19 -7 -17 -130
2 -104 5 -133 17 -140 10 -7 11 -10 3 -10 -22 0 -14 -18 10 -23 l22 -4 -22 -2
c-16 -1 -23 -7 -23 -21 0 -13 5 -17 14 -14 8 3 19 -4 26 -16 9 -16 18 -20 34
-16 16 4 30 -2 46 -19 26 -28 45 -33 36 -10 -3 9 0 15 9 15 18 0 18 5 4 31
-11 22 -34 15 -25 -7 8 -21 -8 -17 -30 8 -10 12 -13 18 -6 14 6 -4 12 -2 12 4
0 6 5 8 10 5 6 -3 10 -1 10 6 0 8 6 6 18 -4 21 -19 32 -13 32 18 0 30 20 48
37 34 15 -13 17 -50 4 -65 -5 -5 -11 -28 -15 -51 -5 -37 -3 -45 25 -73 34 -33
34 -49 0 -30 -20 10 -21 9 -15 -14 9 -38 -23 -48 -48 -15 -10 13 -22 29 -27
35 -17 21 -23 54 -9 55 7 0 3 4 -10 9 -14 6 -32 5 -50 -1 -15 -6 -43 -12 -62
-14 -19 -1 -47 -6 -63 -10 -22 -6 -26 -4 -21 8 7 19 -33 34 -49 18 -8 -8 -6
-15 9 -26 18 -13 16 -14 -21 -16 -22 -1 -47 -3 -55 -4 -8 -1 -20 -3 -27 -4 -6
0 -26 -13 -44 -28 -27 -23 -30 -24 -21 -6 10 18 8 23 -11 36 l-22 16 25 1 c49
1 -9 22 -65 24 -53 1 -79 -9 -58 -22 18 -11 10 -45 -12 -59 -13 -8 -67 -12
-152 -13 l-133 0 0 -180 0 -180 616 0 c581 0 615 1 611 18 -29 105 -50 162
-64 173 -9 8 -38 61 -65 118 -47 99 -48 105 -31 120 10 9 14 12 11 7 -9 -10
19 -66 32 -66 15 0 12 18 -7 51 -16 28 -16 30 1 46 10 10 16 13 13 7 -3 -6 4
-26 16 -45 l22 -34 3 30 c5 42 19 53 27 22 9 -35 3 -62 -15 -62 -20 0 -31 -41
-20 -71 13 -33 2 -30 -12 4 -8 21 -12 23 -15 10 -2 -9 11 -41 29 -70 41 -66
51 -87 78 -166 12 -35 19 -70 16 -78 -5 -12 22 -14 173 -14 l179 0 5 33 c3 17
9 102 13 187 7 153 6 155 -13 138 -30 -27 -42 -22 -49 21 -4 22 -13 42 -20 45
-8 3 -14 16 -14 30 0 23 -4 24 -62 28 -44 3 -66 0 -74 -9 -17 -20 -34 -15 -44
13 -13 33 -33 21 -28 -17 3 -16 3 -29 2 -29 -1 0 -9 -3 -18 -6 -10 -4 -16 -1
-16 9 0 8 -3 17 -7 19 -5 2 -18 17 -30 34 -19 27 -20 37 -12 75 6 24 8 52 5
62 -3 13 0 17 9 13 8 -3 32 -10 54 -16 31 -8 41 -16 41 -31 0 -11 -8 -23 -17
-26 -15 -6 -15 -7 3 -14 10 -4 36 -8 56 -8 36 -1 37 -1 43 47 3 26 9 60 12 75
l5 29 71 -4 c62 -3 72 -1 75 15 2 11 -3 17 -13 17 -11 0 -15 5 -11 15 3 10 -1
15 -14 15 -10 0 -22 5 -25 10 -4 6 7 10 24 10 21 0 31 -5 31 -15 0 -8 4 -15 9
-15 5 0 12 -11 15 -25 5 -20 13 -25 36 -25 31 0 41 16 16 26 -7 3 -13 16 -13
30 0 23 2 24 71 26 50 1 58 3 27 5 -39 4 -71 21 -71 37 0 3 37 6 82 6 111 0
94 9 -21 11 -73 2 -91 5 -87 16 3 7 -1 13 -9 13 -8 0 -15 -4 -15 -9 0 -5 -9
-11 -21 -14 -18 -5 -20 -1 -17 31 2 27 8 38 22 40 11 3 16 0 12 -7 -4 -6 0
-11 11 -11 10 0 26 -9 36 -20 9 -11 24 -20 33 -20 14 0 14 3 4 15 -15 19 -18
18 113 15 l107 -2 0 51 0 51 -151 0 c-97 0 -148 -4 -144 -10 3 -5 34 -11 68
-12 53 -1 55 -2 18 -5 -26 -3 -50 -11 -56 -20 -11 -15 -14 -15 -36 0 -13 10
-31 17 -41 17 -10 0 -18 7 -18 16 0 8 -5 12 -11 9 -7 -5 -2 -16 12 -31 26 -28
19 -42 -13 -27 -33 15 -77 -2 -71 -28 7 -24 -16 -25 -59 -3 -16 9 -40 13 -53
10 -13 -3 -27 0 -34 8 -10 11 -4 16 31 27 38 12 43 18 46 47 2 23 -1 32 -12
32 -8 0 -16 -10 -18 -22 -4 -32 -33 -34 -63 -4 -17 17 -25 20 -25 11 0 -20
-19 -19 -26 0 -8 19 -43 19 -68 0 -21 -16 -61 -21 -52 -6 10 15 -35 21 -165
21 -121 0 -126 -1 -149 -25z m540 -125 c-16 -11 -40 -13 -40 -5 0 8 44 24 50
18 2 -2 -2 -8 -10 -13z m172 8 c-9 -9 -15 -9 -24 0 -9 9 -7 12 12 12 19 0 21
-3 12 -12z m105 -67 c8 -11 8 -17 1 -20 -6 -2 -14 3 -19 10 -7 12 -12 12 -30
1 -11 -8 -18 -9 -14 -3 6 10 1 12 -37 15 -7 1 -12 -5 -10 -11 1 -8 -10 -13
-29 -13 -27 0 -30 2 -19 15 7 8 9 16 4 16 -5 1 5 5 21 9 43 10 118 -1 132 -19z
m-132 -71 c4 -6 -12 -10 -40 -10 -28 0 -44 4 -40 10 3 6 21 10 40 10 19 0 37
-4 40 -10z m-552 -60 c5 -19 -18 -48 -29 -37 -9 8 4 57 15 57 5 0 11 -9 14
-20z m167 -121 c0 -24 -4 -29 -26 -29 -22 0 -24 3 -18 23 3 12 11 24 15 25 5
2 7 8 4 13 -4 5 1 6 9 3 10 -4 16 -18 16 -35z m115 -119 c-3 -10 -12 -17 -19
-14 -17 6 -41 78 -31 94 11 18 58 -56 50 -80z m-218 8 c-3 -8 -6 -5 -6 6 -1
11 2 17 5 13 3 -3 4 -12 1 -19z m-20 -25 c-3 -3 -11 -2 -17 2 -8 5 -7 11 2 22
12 15 13 14 16 -1 2 -10 1 -20 -1 -23z m436 -39 l42 5 -44 -14 c-25 -8 -45
-14 -47 -12 -1 1 -5 13 -8 27 -6 22 -5 23 4 7 10 -15 20 -17 53 -13z m-1053
-106 c-1 -26 -3 -30 -10 -16 -6 9 -7 23 -4 32 9 25 14 19 14 -16z m-37 -7 c-2
-10 2 -24 10 -32 7 -8 12 -20 9 -27 -6 -18 -22 -4 -22 19 0 10 -5 19 -10 19
-7 0 -7 6 0 20 13 25 20 26 13 1z m1094 -8 c-2 -2 -18 0 -36 3 -21 4 -28 10
-20 14 11 7 64 -9 56 -17z m53 -28 c20 -21 21 -27 10 -38 -10 -9 -11 -9 -6 0
4 8 -4 24 -18 38 -14 14 -22 25 -17 25 4 0 18 -11 31 -25z m-1213 -80 c-7 -27
-18 -59 -25 -70 -11 -18 -12 -16 -7 15 6 34 36 113 41 108 1 -2 -3 -25 -9 -53z
m1263 0 c0 -5 -5 -3 -10 5 -5 8 -10 20 -10 25 0 6 5 3 10 -5 5 -8 10 -19 10
-25z m-29 -18 c-10 -9 -11 -8 -5 6 3 10 9 15 12 12 3 -3 0 -11 -7 -18z m-115
-69 c18 -45 20 -58 9 -58 -14 0 -27 38 -39 110 -3 19 -3 28 0 20 4 -8 17 -41
30 -72z m173 -22 c-5 -17 -9 -31 -9 -31 0 -1 -9 -1 -19 -1 -19 0 -19 1 0 25
14 18 18 34 14 55 -6 31 -6 31 8 7 11 -18 12 -33 6 -55z"/>
<path d="M1467 1463 c-3 -5 -8 -23 -12 -41 l-7 -33 27 25 c17 15 25 32 21 41
-6 16 -22 20 -29 8z"/>
<path d="M1553 1463 c15 -2 39 -2 55 0 15 2 2 4 -28 4 -30 0 -43 -2 -27 -4z"/>
<path d="M1708 1463 c7 -3 16 -2 19 1 4 3 -2 6 -13 5 -11 0 -14 -3 -6 -6z"/>
<path d="M1812 1465 c7 -7 97 -9 105 -2 3 4 -20 7 -52 7 -32 0 -56 -2 -53 -5z"/>
<path d="M541 1235 c1 -153 4 -195 15 -195 16 0 29 77 20 122 -3 18 -6 86 -7
151 -2 90 -5 117 -16 117 -10 0 -13 -38 -12 -195z"/>
<path d="M685 1410 c4 -6 11 -8 16 -5 14 9 11 15 -7 15 -8 0 -12 -5 -9 -10z"/>
<path d="M590 1359 c0 -5 5 -7 10 -4 6 3 10 8 10 11 0 2 -4 4 -10 4 -5 0 -10
-5 -10 -11z"/>
<path d="M595 1330 c3 -5 13 -10 21 -10 8 0 12 5 9 10 -3 6 -13 10 -21 10 -8
0 -12 -4 -9 -10z"/>
<path d="M1870 1320 c-11 -7 -7 -10 18 -10 17 0 32 5 32 10 0 13 -30 13 -50 0z"/>
<path d="M1747 1313 c18 -2 50 -2 70 0 21 2 7 4 -32 4 -38 0 -55 -2 -38 -4z"/>
<path d="M600 1279 c0 -17 4 -28 10 -24 6 3 10 -3 10 -14 0 -12 -4 -21 -10
-21 -6 0 -10 -28 -10 -65 0 -51 3 -63 14 -59 8 3 16 -2 19 -13 3 -14 2 72 -3
215 0 6 -7 12 -15 12 -10 0 -15 -10 -15 -31z"/>
<path d="M1865 1260 c-19 -8 -19 -9 3 -9 12 -1 22 4 22 9 0 6 -1 10 -2 9 -2 0
-12 -4 -23 -9z"/>
<path d="M1738 1253 c6 -2 18 -2 25 0 6 3 1 5 -13 5 -14 0 -19 -2 -12 -5z"/>
<path d="M1848 1233 c12 -2 30 -2 40 0 9 3 -1 5 -23 4 -22 0 -30 -2 -17 -4z"/>
<path d="M1738 963 l-46 -4 -6 -57 c-3 -31 -11 -142 -17 -247 -6 -104 -13
-193 -16 -197 -2 -5 57 -8 131 -8 l136 0 0 260 0 260 -67 -2 c-38 -1 -89 -3
-115 -5z"/>
<path d="M458 883 c6 -2 18 -2 25 0 6 3 1 5 -13 5 -14 0 -19 -2 -12 -5z"/>
</g>
</svg>
